<svg width="18" height="18" viewBox="0 0 18 18" fill="none" xmlns="http://www.w3.org/2000/svg">
<path fill-rule="evenodd" clip-rule="evenodd" d="M2.598 2.598C1.5 3.6975 1.5 5.4645 1.5 9C1.5 12.5355 1.5 14.3032 2.598 15.4012C3.6975 16.5 5.4645 16.5 9 16.5C12.5355 16.5 14.3032 16.5 15.4012 15.4012C16.5 14.304 16.5 12.5355 16.5 9C16.5 5.4645 16.5 3.69675 15.4012 2.598C14.304 1.5 12.5355 1.5 9 1.5C5.4645 1.5 3.69675 1.5 2.598 2.598ZM13.182 7.86C13.2733 7.74497 13.3159 7.5988 13.3009 7.45273C13.2858 7.30665 13.2143 7.17226 13.1015 7.07825C12.9887 6.98424 12.8435 6.93807 12.6972 6.94961C12.5508 6.96115 12.4147 7.02948 12.318 7.14L10.9702 8.757C10.6927 9.09075 10.521 9.294 10.3807 9.42075C10.3443 9.45657 10.3032 9.48734 10.2585 9.51225L10.2502 9.516L10.2443 9.513L10.242 9.51225C10.1971 9.48737 10.1557 9.4566 10.119 9.42075C9.97875 9.29325 9.80775 9.09075 9.5295 8.757L9.3105 8.4945C9.06375 8.19825 8.84175 7.932 8.63475 7.7445C8.409 7.5405 8.12475 7.359 7.74975 7.359C7.37475 7.359 7.09125 7.5405 6.86475 7.7445C6.65775 7.932 6.43575 8.19825 6.18975 8.4945L4.81725 10.14C4.76997 10.1968 4.73434 10.2623 4.7124 10.3329C4.69045 10.4034 4.68261 10.4776 4.68933 10.5512C4.7029 10.6998 4.77495 10.8369 4.88962 10.9324C5.0043 11.0279 5.1522 11.0739 5.3008 11.0603C5.4494 11.0467 5.58652 10.9747 5.682 10.86L7.02975 9.243C7.30725 8.90925 7.479 8.706 7.61925 8.57925C7.65574 8.54343 7.69685 8.51266 7.7415 8.48775L7.74675 8.4855L7.74975 8.484L7.758 8.48775C7.8029 8.51263 7.84427 8.5434 7.881 8.57925C8.02125 8.70675 8.19225 8.90925 8.4705 9.243L8.6895 9.5055C8.93625 9.80175 9.15825 10.068 9.36525 10.2555C9.591 10.4595 9.87525 10.641 10.2502 10.641C10.6252 10.641 10.9088 10.4595 11.1353 10.2555C11.3423 10.068 11.5642 9.80175 11.8102 9.5055L13.182 7.86Z" fill="#A5A6A7"/>
</svg>
