<svg width="18" height="18" viewBox="0 0 18 18" fill="none" xmlns="http://www.w3.org/2000/svg">
<path d="M7.01996 5.71503C7.52396 5.71503 7.92896 5.31003 7.92896 4.80603C7.92896 4.30203 7.52396 3.89703 7.01996 3.89703C6.51596 3.89703 6.11096 4.30203 6.11096 4.80603C6.11096 5.31003 6.51596 5.71503 7.01996 5.71503Z" fill="black"/>
<path fill-rule="evenodd" clip-rule="evenodd" d="M8.84705 7.695C8.84705 6.723 8.02805 6.021 7.02005 6.021C6.01205 6.021 5.19305 6.723 5.19305 7.695V8.154C5.19305 8.235 5.22905 8.316 5.28305 8.37C5.33705 8.424 5.41805 8.46 5.49905 8.46H8.54105C8.62205 8.46 8.70305 8.424 8.75705 8.37C8.81105 8.316 8.84705 8.235 8.84705 8.154V7.695ZM5.17505 10.35C5.17505 10.171 5.24616 9.99929 5.37275 9.8727C5.49934 9.74611 5.67103 9.675 5.85005 9.675H12.15C12.3291 9.675 12.5008 9.74611 12.6273 9.8727C12.7539 9.99929 12.825 10.171 12.825 10.35C12.825 10.529 12.7539 10.7007 12.6273 10.8273C12.5008 10.9539 12.3291 11.025 12.15 11.025H5.85005C5.67103 11.025 5.49934 10.9539 5.37275 10.8273C5.24616 10.7007 5.17505 10.529 5.17505 10.35ZM5.17505 13.05C5.17505 12.871 5.24616 12.6993 5.37275 12.5727C5.49934 12.4461 5.67103 12.375 5.85005 12.375H12.15C12.3291 12.375 12.5008 12.4461 12.6273 12.5727C12.7539 12.6993 12.825 12.871 12.825 13.05C12.825 13.229 12.7539 13.4007 12.6273 13.5273C12.5008 13.6539 12.3291 13.725 12.15 13.725H5.85005C5.67103 13.725 5.49934 13.6539 5.37275 13.5273C5.24616 13.4007 5.17505 13.229 5.17505 13.05Z" fill="black"/>
<path fill-rule="evenodd" clip-rule="evenodd" d="M2.25 2.25001C2.25 1.25821 3.0582 0.450012 4.05 0.450012H10.071C10.5768 0.450012 11.0538 0.664212 11.3895 1.01791L11.3949 1.02421L15.2757 5.25601C15.5988 5.60071 15.75 6.05161 15.75 6.48001V15.75C15.75 16.7418 14.9418 17.55 13.95 17.55H4.05C3.0582 17.55 2.25 16.7418 2.25 15.75V2.25001ZM10.0701 2.25001H4.05V15.75H13.95V6.47281L10.0836 2.25631L10.0809 2.25541C10.0776 2.25303 10.074 2.25121 10.0701 2.25001Z" fill="black"/>
<path fill-rule="evenodd" clip-rule="evenodd" d="M10.071 0.450012C10.3097 0.450012 10.5386 0.544833 10.7074 0.713616C10.8762 0.882399 10.971 1.11132 10.971 1.35001V5.58001H14.85C14.9682 5.58001 15.0852 5.60329 15.1944 5.64852C15.3036 5.69375 15.4028 5.76004 15.4864 5.84362C15.57 5.92719 15.6363 6.0264 15.6815 6.1356C15.7267 6.24479 15.75 6.36182 15.75 6.48001C15.75 6.5982 15.7267 6.71523 15.6815 6.82443C15.6363 6.93362 15.57 7.03284 15.4864 7.11641C15.4028 7.19998 15.3036 7.26627 15.1944 7.3115C15.0852 7.35673 14.9682 7.38001 14.85 7.38001H10.071C9.83233 7.38001 9.60341 7.28519 9.43462 7.11641C9.26584 6.94763 9.17102 6.71871 9.17102 6.48001V1.35001C9.17102 1.11132 9.26584 0.882399 9.43462 0.713616C9.60341 0.544833 9.83233 0.450012 10.071 0.450012Z" fill="black"/>
</svg>
