<svg width="18" height="18" viewBox="0 0 18 18" fill="none" xmlns="http://www.w3.org/2000/svg">
<path d="M1.3125 7.5V10.5C1.3125 12.6217 1.3125 13.6822 1.97175 14.3415C2.1345 14.5042 2.322 14.6265 2.544 14.7195C2.53898 14.686 2.53423 14.6525 2.52975 14.619C2.4375 13.9305 2.4375 13.0718 2.4375 12.0743V5.9265C2.4375 4.929 2.4375 4.0695 2.52975 3.38175L2.54475 3.28125C2.33044 3.36775 2.13561 3.49628 1.97175 3.65925C1.3125 4.3185 1.3125 5.379 1.3125 7.5ZM16.3125 7.5V10.5C16.3125 12.6217 16.3125 13.6822 15.6533 14.3415C15.4905 14.5042 15.303 14.6265 15.081 14.7195L15.0953 14.619C15.1875 13.9305 15.1875 13.0718 15.1875 12.0743V5.9265C15.1875 4.929 15.1875 4.0695 15.0953 3.38175C15.0905 3.34821 15.0855 3.31471 15.0803 3.28125C15.303 3.3735 15.4905 3.4965 15.6533 3.65925C16.3125 4.3185 16.3125 5.379 16.3125 7.5Z" fill="black"/>
<path fill-rule="evenodd" clip-rule="evenodd" d="M4.22175 2.15925C3.5625 2.81775 3.5625 3.879 3.5625 6V12C3.5625 14.121 3.5625 15.1823 4.22175 15.8408C4.88025 16.5 5.9415 16.5 8.0625 16.5H9.5625C11.6835 16.5 12.7448 16.5 13.4033 15.8408C14.0625 15.1823 14.0625 14.121 14.0625 12V6C14.0625 3.879 14.0625 2.81775 13.4033 2.15925C12.7448 1.5 11.6835 1.5 9.5625 1.5H8.0625C5.9415 1.5 4.88025 1.5 4.22175 2.15925ZM6 12.75C6 12.6008 6.05926 12.4577 6.16475 12.3523C6.27024 12.2468 6.41332 12.1875 6.5625 12.1875H8.8125C8.96168 12.1875 9.10476 12.2468 9.21025 12.3523C9.31574 12.4577 9.375 12.6008 9.375 12.75C9.375 12.8992 9.31574 13.0423 9.21025 13.1477C9.10476 13.2532 8.96168 13.3125 8.8125 13.3125H6.5625C6.41332 13.3125 6.27024 13.2532 6.16475 13.1477C6.05926 13.0423 6 12.8992 6 12.75ZM6.5625 9.1875C6.41332 9.1875 6.27024 9.24676 6.16475 9.35225C6.05926 9.45774 6 9.60082 6 9.75C6 9.89918 6.05926 10.0423 6.16475 10.1477C6.27024 10.2532 6.41332 10.3125 6.5625 10.3125H11.0625C11.2117 10.3125 11.3548 10.2532 11.4602 10.1477C11.5657 10.0423 11.625 9.89918 11.625 9.75C11.625 9.60082 11.5657 9.45774 11.4602 9.35225C11.3548 9.24676 11.2117 9.1875 11.0625 9.1875H6.5625ZM6 6.75C6 6.60082 6.05926 6.45774 6.16475 6.35225C6.27024 6.24676 6.41332 6.1875 6.5625 6.1875H11.0625C11.2117 6.1875 11.3548 6.24676 11.4602 6.35225C11.5657 6.45774 11.625 6.60082 11.625 6.75C11.625 6.89918 11.5657 7.04226 11.4602 7.14775C11.3548 7.25324 11.2117 7.3125 11.0625 7.3125H6.5625C6.41332 7.3125 6.27024 7.25324 6.16475 7.14775C6.05926 7.04226 6 6.89918 6 6.75Z" fill="black"/>
</svg>
