<svg width="24" height="24" viewBox="0 0 24 24" fill="none" xmlns="http://www.w3.org/2000/svg">
<g clip-path="url(#clip0_234_992)">
<path d="M12.0001 14.6667C13.5575 14.6667 14.8201 13.4041 14.8201 11.8467C14.8201 10.2892 13.5575 9.02667 12.0001 9.02667C10.4426 9.02667 9.18005 10.2892 9.18005 11.8467C9.18005 13.4041 10.4426 14.6667 12.0001 14.6667Z" fill="black"/>
<path d="M14 2.66665C14 2.31302 13.8595 1.97389 13.6095 1.72384C13.3594 1.47379 13.0203 1.33331 12.6667 1.33331H11.3333C10.9797 1.33331 10.6406 1.47379 10.3905 1.72384C10.1405 1.97389 10 2.31302 10 2.66665V6.66665H14V2.66665Z" fill="black"/>
<path d="M6.83998 18C6.72665 18.1367 6.66526 18.3091 6.66665 18.4866V20H17.3333V18.4666C17.3353 18.289 17.2738 18.1164 17.16 17.98C16.513 17.2592 15.7154 16.6897 14.8236 16.3118C13.9318 15.9339 12.9678 15.7569 12 15.7933C11.0306 15.7593 10.0656 15.9395 9.17376 16.3209C8.2819 16.7023 7.48507 17.2756 6.83998 18Z" fill="black"/>
<path d="M18.6667 4H15.3333V5.33333H18.6667V21.3333H5.33333V5.33333H8.66667V4H5.33333C4.97971 4 4.64057 4.14048 4.39052 4.39052C4.14048 4.64057 4 4.97971 4 5.33333V21.3333C4 21.687 4.14048 22.0261 4.39052 22.2761C4.64057 22.5262 4.97971 22.6667 5.33333 22.6667H18.6667C19.0203 22.6667 19.3594 22.5262 19.6095 22.2761C19.8595 22.0261 20 21.687 20 21.3333V5.33333C20 4.97971 19.8595 4.64057 19.6095 4.39052C19.3594 4.14048 19.0203 4 18.6667 4Z" fill="black"/>
</g>
<defs>
<clipPath id="clip0_234_992">
<rect width="24" height="24" fill="white"/>
</clipPath>
</defs>
</svg>
