<svg width="44" height="44" viewBox="0 0 44 44" fill="none" xmlns="http://www.w3.org/2000/svg">
<path d="M16.5002 9.16667C16.0139 9.16667 15.5476 9.35982 15.2038 9.70364C14.86 10.0475 14.6668 10.5138 14.6668 11C14.6668 11.4862 14.86 11.9525 15.2038 12.2964C15.5476 12.6402 16.0139 12.8333 16.5002 12.8333C16.9864 12.8333 17.4527 12.6402 17.7965 12.2964C18.1403 11.9525 18.3335 11.4862 18.3335 11C18.3335 10.5138 18.1403 10.0475 17.7965 9.70364C17.4527 9.35982 16.9864 9.16667 16.5002 9.16667ZM11.3118 9.16667C11.6906 8.09319 12.393 7.16363 13.3223 6.50611C14.2515 5.8486 15.3618 5.49551 16.5002 5.49551C17.6385 5.49551 18.7488 5.8486 19.6781 6.50611C20.6073 7.16363 21.3097 8.09319 21.6885 9.16667H34.8335C35.3197 9.16667 35.786 9.35982 36.1299 9.70364C36.4737 10.0475 36.6668 10.5138 36.6668 11C36.6668 11.4862 36.4737 11.9525 36.1299 12.2964C35.786 12.6402 35.3197 12.8333 34.8335 12.8333H21.6885C21.3097 13.9068 20.6073 14.8364 19.6781 15.4939C18.7488 16.1514 17.6385 16.5045 16.5002 16.5045C15.3618 16.5045 14.2515 16.1514 13.3223 15.4939C12.393 14.8364 11.6906 13.9068 11.3118 12.8333H9.16683C8.6806 12.8333 8.21428 12.6402 7.87047 12.2964C7.52665 11.9525 7.3335 11.4862 7.3335 11C7.3335 10.5138 7.52665 10.0475 7.87047 9.70364C8.21428 9.35982 8.6806 9.16667 9.16683 9.16667H11.3118ZM27.5002 20.1667C27.0139 20.1667 26.5476 20.3598 26.2038 20.7036C25.86 21.0475 25.6668 21.5138 25.6668 22C25.6668 22.4862 25.86 22.9525 26.2038 23.2964C26.5476 23.6402 27.0139 23.8333 27.5002 23.8333C27.9864 23.8333 28.4527 23.6402 28.7965 23.2964C29.1403 22.9525 29.3335 22.4862 29.3335 22C29.3335 21.5138 29.1403 21.0475 28.7965 20.7036C28.4527 20.3598 27.9864 20.1667 27.5002 20.1667ZM22.3118 20.1667C22.6906 19.0932 23.393 18.1636 24.3223 17.5061C25.2515 16.8486 26.3618 16.4955 27.5002 16.4955C28.6385 16.4955 29.7488 16.8486 30.6781 17.5061C31.6073 18.1636 32.3097 19.0932 32.6885 20.1667H34.8335C35.3197 20.1667 35.786 20.3598 36.1299 20.7036C36.4737 21.0475 36.6668 21.5138 36.6668 22C36.6668 22.4862 36.4737 22.9525 36.1299 23.2964C35.786 23.6402 35.3197 23.8333 34.8335 23.8333H32.6885C32.3097 24.9068 31.6073 25.8364 30.6781 26.4939C29.7488 27.1514 28.6385 27.5045 27.5002 27.5045C26.3618 27.5045 25.2515 27.1514 24.3223 26.4939C23.393 25.8364 22.6906 24.9068 22.3118 23.8333H9.16683C8.6806 23.8333 8.21428 23.6402 7.87047 23.2964C7.52665 22.9525 7.3335 22.4862 7.3335 22C7.3335 21.5138 7.52665 21.0475 7.87047 20.7036C8.21428 20.3598 8.6806 20.1667 9.16683 20.1667H22.3118ZM16.5002 31.1667C16.0139 31.1667 15.5476 31.3598 15.2038 31.7036C14.86 32.0475 14.6668 32.5138 14.6668 33C14.6668 33.4862 14.86 33.9525 15.2038 34.2964C15.5476 34.6402 16.0139 34.8333 16.5002 34.8333C16.9864 34.8333 17.4527 34.6402 17.7965 34.2964C18.1403 33.9525 18.3335 33.4862 18.3335 33C18.3335 32.5138 18.1403 32.0475 17.7965 31.7036C17.4527 31.3598 16.9864 31.1667 16.5002 31.1667ZM11.3118 31.1667C11.6906 30.0932 12.393 29.1636 13.3223 28.5061C14.2515 27.8486 15.3618 27.4955 16.5002 27.4955C17.6385 27.4955 18.7488 27.8486 19.6781 28.5061C20.6073 29.1636 21.3097 30.0932 21.6885 31.1667H34.8335C35.3197 31.1667 35.786 31.3598 36.1299 31.7036C36.4737 32.0475 36.6668 32.5138 36.6668 33C36.6668 33.4862 36.4737 33.9525 36.1299 34.2964C35.786 34.6402 35.3197 34.8333 34.8335 34.8333H21.6885C21.3097 35.9068 20.6073 36.8364 19.6781 37.4939C18.7488 38.1514 17.6385 38.5045 16.5002 38.5045C15.3618 38.5045 14.2515 38.1514 13.3223 37.4939C12.393 36.8364 11.6906 35.9068 11.3118 34.8333H9.16683C8.6806 34.8333 8.21428 34.6402 7.87047 34.2964C7.52665 33.9525 7.3335 33.4862 7.3335 33C7.3335 32.5138 7.52665 32.0475 7.87047 31.7036C8.21428 31.3598 8.6806 31.1667 9.16683 31.1667H11.3118Z" fill="white"/>
</svg>
