<svg width="18" height="18" viewBox="0 0 18 18" fill="none" xmlns="http://www.w3.org/2000/svg">
<path d="M9 1.5C9.98491 1.5 10.9602 1.69399 11.8701 2.0709C12.7801 2.44781 13.6069 3.00026 14.3033 3.6967C14.9997 4.39314 15.5522 5.21993 15.9291 6.12987C16.306 7.03982 16.5 8.01509 16.5 9C16.5 10.9891 15.7098 12.8968 14.3033 14.3033C12.8968 15.7098 10.9891 16.5 9 16.5C8.01509 16.5 7.03982 16.306 6.12987 15.9291C5.21993 15.5522 4.39314 14.9997 3.6967 14.3033C2.29018 12.8968 1.5 10.9891 1.5 9C1.5 7.01088 2.29018 5.10322 3.6967 3.6967C5.10322 2.29018 7.01088 1.5 9 1.5ZM9 7.875C8.70163 7.875 8.41548 7.99353 8.2045 8.2045C7.99353 8.41548 7.875 8.70163 7.875 9C7.875 9.29837 7.99353 9.58452 8.2045 9.7955C8.41548 10.0065 8.70163 10.125 9 10.125C9.29837 10.125 9.58452 10.0065 9.7955 9.7955C10.0065 9.58452 10.125 9.29837 10.125 9C10.125 8.70163 10.0065 8.41548 9.7955 8.2045C9.58452 7.99353 9.29837 7.875 9 7.875ZM4.875 7.875C4.57663 7.875 4.29048 7.99353 4.0795 8.2045C3.86853 8.41548 3.75 8.70163 3.75 9C3.75 9.29837 3.86853 9.58452 4.0795 9.7955C4.29048 10.0065 4.57663 10.125 4.875 10.125C5.17337 10.125 5.45952 10.0065 5.6705 9.7955C5.88147 9.58452 6 9.29837 6 9C6 8.70163 5.88147 8.41548 5.6705 8.2045C5.45952 7.99353 5.17337 7.875 4.875 7.875ZM13.125 7.875C12.8266 7.875 12.5405 7.99353 12.3295 8.2045C12.1185 8.41548 12 8.70163 12 9C12 9.29837 12.1185 9.58452 12.3295 9.7955C12.5405 10.0065 12.8266 10.125 13.125 10.125C13.4234 10.125 13.7095 10.0065 13.9205 9.7955C14.1315 9.58452 14.25 9.29837 14.25 9C14.25 8.70163 14.1315 8.41548 13.9205 8.2045C13.7095 7.99353 13.4234 7.875 13.125 7.875Z" fill="black"/>
</svg>
