<svg width="18" height="18" viewBox="0 0 18 18" fill="none" xmlns="http://www.w3.org/2000/svg">
<path d="M10.5 1.5H4.5C4.10218 1.5 3.72064 1.65804 3.43934 1.93934C3.15804 2.22064 3 2.60218 3 3V15C3 15.3978 3.15804 15.7794 3.43934 16.0607C3.72064 16.342 4.10218 16.5 4.5 16.5H9.75C9.4425 16.3125 9.15 16.08 8.895 15.825C8.4236 15.3916 8.04251 14.8694 7.77366 14.2882C7.5048 13.7071 7.35348 13.0785 7.32838 12.4386C7.30329 11.7988 7.40493 11.1603 7.62745 10.5599C7.84997 9.95947 8.18898 9.40895 8.625 8.94C10.2675 7.125 12.9975 6.8475 15 8.25V6L10.5 1.5ZM9.75 6.75V2.625L13.875 6.75H9.75ZM15.2325 14.175C16.23 12.5925 15.75 10.5 14.1825 9.51C12.6 8.5125 10.5 9 9.5175 10.56C8.5125 12.1425 9 14.2275 10.5675 15.225C11.6625 15.9225 13.0575 15.9225 14.16 15.24L16.5 17.5425L17.5425 16.5L15.2325 14.175ZM12.375 14.25C11.8777 14.25 11.4008 14.0525 11.0492 13.7008C10.6975 13.3492 10.5 12.8723 10.5 12.375C10.5 11.8777 10.6975 11.4008 11.0492 11.0492C11.4008 10.6975 11.8777 10.5 12.375 10.5C12.8723 10.5 13.3492 10.6975 13.7008 11.0492C14.0525 11.4008 14.25 11.8777 14.25 12.375C14.25 12.8723 14.0525 13.3492 13.7008 13.7008C13.3492 14.0525 12.8723 14.25 12.375 14.25Z" fill="black"/>
</svg>
