<svg width="18" height="18" viewBox="0 0 18 18" fill="none" xmlns="http://www.w3.org/2000/svg">
<g clip-path="url(#clip0_259_64)">
<path d="M12.3539 11.2711L9 14.625L5.64609 11.2711C3.13242 11.3801 1.125 13.4367 1.125 15.975V16.3125C1.125 17.2442 1.88086 18 2.8125 18H15.1875C16.1191 18 16.875 17.2442 16.875 16.3125V15.975C16.875 13.4367 14.8676 11.3801 12.3539 11.2711ZM1.60313 2.80549L1.82812 2.85823V4.91135C1.58203 5.05901 1.40625 5.31565 1.40625 5.62502C1.40625 5.92034 1.56797 6.16643 1.79648 6.3176L1.24805 8.50784C1.18828 8.75042 1.32188 9.00003 1.51523 9.00003H2.98477C3.17813 9.00003 3.31172 8.75042 3.25195 8.50784L2.70352 6.3176C2.93203 6.16643 3.09375 5.92034 3.09375 5.62502C3.09375 5.31565 2.91797 5.05901 2.67188 4.91135V3.06213L4.99219 3.62112C4.68984 4.22581 4.5 4.90081 4.5 5.62502C4.5 8.11057 6.51445 10.125 9 10.125C11.4855 10.125 13.5 8.11057 13.5 5.62502C13.5 4.90081 13.3137 4.22581 13.0078 3.62112L16.3934 2.80549C17.0332 2.65081 17.0332 1.85276 16.3934 1.69807L9.69961 0.0808838C9.24258 -0.0281006 8.76094 -0.0281006 8.30391 0.0808838L1.60313 1.69456C0.966797 1.84924 0.966797 2.65081 1.60313 2.80549Z" fill="black"/>
</g>
<defs>
<clipPath id="clip0_259_64">
<rect width="18" height="18" fill="white"/>
</clipPath>
</defs>
</svg>
